<svg xmlns="http://www.w3.org/2000/svg" xmlns:xlink="http://www.w3.org/1999/xlink" width="756" height="763" contentStyleType="text/css" preserveAspectRatio="none" style="width:756px;height:763px;background:#003153" version="1.1" viewBox="0 0 756 763" zoomAndPan="magnify"><g><rect width="756" height="763" x="0" fill="#003153" style="stroke:none;stroke-width:1" y="0"/><g id="cluster_frontend"><polygon fill="#003153" points="32 21 42 11 657 11 657 418 647 428 32 428 32 21" style="stroke:#d9d3d0;stroke-width:1"/><line style="stroke:#d9d3d0;stroke-width:1" x1="647" x2="657" y1="21" y2="11"/><line style="stroke:#d9d3d0;stroke-width:1" x1="32" x2="647" y1="21" y2="21"/><line style="stroke:#d9d3d0;stroke-width:1" x1="647" x2="647" y1="21" y2="428"/><text x="305" y="36.995" fill="#D9D3D0" font-family="Verdana" font-size="14" font-weight="bold" lengthAdjust="spacing" textLength="71">frontend</text></g><g id="cluster_components"><path fill="#003153" d="M192.5,75 L293.5,75 A3.75,3.75 0 0 1 296,77.5 L303,97.2969 L371.5,97.2969 A2.5,2.5 0 0 1 374,99.7969 L374,401.5 A2.5,2.5 0 0 1 371.5,404 L192.5,404 A2.5,2.5 0 0 1 190,401.5 L190,77.5 A2.5,2.5 0 0 1 192.5,75" style="stroke:#d9d3d0;stroke-width:1"/><line style="stroke:#d9d3d0;stroke-width:1" x1="190" x2="303" y1="97.297" y2="97.297"/><text x="194" y="89.995" fill="#D9D3D0" font-family="Verdana" font-size="14" font-weight="bold" lengthAdjust="spacing" textLength="100">components</text></g><g id="cluster_services"><path fill="#003153" d="M408.5,67 L475.5,67 A3.75,3.75 0 0 1 478,69.5 L485,89.2969 L622.5,89.2969 A2.5,2.5 0 0 1 625,91.7969 L625,284.5 A2.5,2.5 0 0 1 622.5,287 L408.5,287 A2.5,2.5 0 0 1 406,284.5 L406,69.5 A2.5,2.5 0 0 1 408.5,67" style="stroke:#d9d3d0;stroke-width:1"/><line style="stroke:#d9d3d0;stroke-width:1" x1="406" x2="485" y1="89.297" y2="89.297"/><text x="410" y="81.995" fill="#D9D3D0" font-family="Verdana" font-size="14" font-weight="bold" lengthAdjust="spacing" textLength="66">services</text></g><g id="cluster_backend"><polygon fill="#003153" points="518 502 528 492 739 492 739 736 729 746 518 746 518 502" style="stroke:#d9d3d0;stroke-width:1"/><line style="stroke:#d9d3d0;stroke-width:1" x1="729" x2="739" y1="502" y2="492"/><line style="stroke:#d9d3d0;stroke-width:1" x1="518" x2="729" y1="502" y2="502"/><line style="stroke:#d9d3d0;stroke-width:1" x1="729" x2="729" y1="502" y2="746"/><text x="591" y="517.995" fill="#D9D3D0" font-family="Verdana" font-size="14" font-weight="bold" lengthAdjust="spacing" textLength="67">backend</text></g><g id="cluster_serverpackage"><path fill="#003153" d="M544.5,540 L595.5,540 A3.75,3.75 0 0 1 598,542.5 L605,562.2969 L712.5,562.2969 A2.5,2.5 0 0 1 715,564.7969 L715,634.5 A2.5,2.5 0 0 1 712.5,637 L544.5,637 A2.5,2.5 0 0 1 542,634.5 L542,542.5 A2.5,2.5 0 0 1 544.5,540" style="stroke:#d9d3d0;stroke-width:1"/><line style="stroke:#d9d3d0;stroke-width:1" x1="542" x2="605" y1="562.297" y2="562.297"/><text x="546" y="554.995" fill="#D9D3D0" font-family="Verdana" font-size="14" font-weight="bold" lengthAdjust="spacing" textLength="50">server</text></g><g id="elem_App"><rect width="70" height="46.297" x="101" y="110" fill="#003153" rx="2.5" ry="2.5" style="stroke:#d9d3d0;stroke-width:1"/><rect width="15" height="10" x="151" fill="#003153" style="stroke:#d9d3d0;stroke-width:1" y="115"/><rect width="4" height="2" x="149" fill="#003153" style="stroke:#d9d3d0;stroke-width:1" y="117"/><rect width="4" height="2" x="149" fill="#003153" style="stroke:#d9d3d0;stroke-width:1" y="121"/><text x="116" y="142.995" fill="#D9D3D0" font-family="Verdana" font-size="14" lengthAdjust="spacing" textLength="30">App</text></g><g id="elem_socket"><path fill="#003153" d="M521.5,345.5 L588.5,345.5 A3.75,3.75 0 0 1 591,348 L598,367.7969 L612.5,367.7969 A2.5,2.5 0 0 1 615,370.2969 L615,382.2969 A2.5,2.5 0 0 1 612.5,384.7969 L521.5,384.7969 A2.5,2.5 0 0 1 519,382.2969 L519,348 A2.5,2.5 0 0 1 521.5,345.5" style="stroke:#d9d3d0;stroke-width:1"/><line style="stroke:#d9d3d0;stroke-width:1" x1="519" x2="598" y1="367.797" y2="367.797"/><text x="529" y="361.495" fill="#D9D3D0" font-family="Verdana" font-size="14" font-weight="bold" lengthAdjust="spacing" textLength="54">socket</text></g><g id="elem_HTTP"><ellipse cx="57" cy="133" fill="#003153" rx="8" ry="8" style="stroke:#d9d3d0;stroke-width:1"/><text x="11" y="162.995" fill="#D9D3D0" font-family="Verdana" font-size="14" lengthAdjust="spacing" textLength="92">HTTP (:3001)</text></g><g id="elem_Terminal"><rect width="103" height="46.297" x="230.5" y="342" fill="#003153" rx="2.5" ry="2.5" style="stroke:#d9d3d0;stroke-width:1"/><rect width="15" height="10" x="313.5" fill="#003153" style="stroke:#d9d3d0;stroke-width:1" y="347"/><rect width="4" height="2" x="311.5" fill="#003153" style="stroke:#d9d3d0;stroke-width:1" y="349"/><rect width="4" height="2" x="311.5" fill="#003153" style="stroke:#d9d3d0;stroke-width:1" y="353"/><text x="245.5" y="374.995" fill="#D9D3D0" font-family="Verdana" font-size="14" lengthAdjust="spacing" textLength="63">Terminal</text></g><g id="elem_ChatInterface"><rect width="140" height="46.297" x="212" y="217" fill="#003153" rx="2.5" ry="2.5" style="stroke:#d9d3d0;stroke-width:1"/><rect width="15" height="10" x="332" fill="#003153" style="stroke:#d9d3d0;stroke-width:1" y="222"/><rect width="4" height="2" x="330" fill="#003153" style="stroke:#d9d3d0;stroke-width:1" y="224"/><rect width="4" height="2" x="330" fill="#003153" style="stroke:#d9d3d0;stroke-width:1" y="228"/><text x="227" y="249.995" fill="#D9D3D0" font-family="Verdana" font-size="14" lengthAdjust="spacing" textLength="100">ChatInterface</text></g><g id="elem_BannerSettings"><rect width="152" height="46.297" x="206" y="110" fill="#003153" rx="2.5" ry="2.5" style="stroke:#d9d3d0;stroke-width:1"/><rect width="15" height="10" x="338" fill="#003153" style="stroke:#d9d3d0;stroke-width:1" y="115"/><rect width="4" height="2" x="336" fill="#003153" style="stroke:#d9d3d0;stroke-width:1" y="117"/><rect width="4" height="2" x="336" fill="#003153" style="stroke:#d9d3d0;stroke-width:1" y="121"/><text x="221" y="142.995" fill="#D9D3D0" font-family="Verdana" font-size="14" lengthAdjust="spacing" textLength="112">BannerSettings</text></g><g id="elem_chatService"><rect width="125" height="46.297" x="430.5" y="217" fill="#003153" rx="2.5" ry="2.5" style="stroke:#d9d3d0;stroke-width:1"/><rect width="15" height="10" x="535.5" fill="#003153" style="stroke:#d9d3d0;stroke-width:1" y="222"/><rect width="4" height="2" x="533.5" fill="#003153" style="stroke:#d9d3d0;stroke-width:1" y="224"/><rect width="4" height="2" x="533.5" fill="#003153" style="stroke:#d9d3d0;stroke-width:1" y="228"/><text x="445.5" y="249.995" fill="#D9D3D0" font-family="Verdana" font-size="14" lengthAdjust="spacing" textLength="85">chatService</text></g><g id="elem_settingsService"><rect width="152" height="46.297" x="430" y="110" fill="#003153" rx="2.5" ry="2.5" style="stroke:#d9d3d0;stroke-width:1"/><rect width="15" height="10" x="562" fill="#003153" style="stroke:#d9d3d0;stroke-width:1" y="115"/><rect width="4" height="2" x="560" fill="#003153" style="stroke:#d9d3d0;stroke-width:1" y="117"/><rect width="4" height="2" x="560" fill="#003153" style="stroke:#d9d3d0;stroke-width:1" y="121"/><text x="445" y="142.995" fill="#D9D3D0" font-family="Verdana" font-size="14" lengthAdjust="spacing" textLength="112">settingsService</text></g><g id="elem_Server"><rect width="87" height="46.297" x="611.5" y="575" fill="#003153" rx="2.5" ry="2.5" style="stroke:#d9d3d0;stroke-width:1"/><rect width="15" height="10" x="678.5" fill="#003153" style="stroke:#d9d3d0;stroke-width:1" y="580"/><rect width="4" height="2" x="676.5" fill="#003153" style="stroke:#d9d3d0;stroke-width:1" y="582"/><rect width="4" height="2" x="676.5" fill="#003153" style="stroke:#d9d3d0;stroke-width:1" y="586"/><text x="626.5" y="607.995" fill="#D9D3D0" font-family="Verdana" font-size="14" lengthAdjust="spacing" textLength="47">Server</text></g><g id="elem_client_socket"><ellipse cx="567" cy="598" fill="#003153" rx="8" ry="8" style="stroke:#d9d3d0;stroke-width:1"/><text x="530" y="627.995" fill="#D9D3D0" font-family="Verdana" font-size="14" lengthAdjust="spacing" textLength="70">Client WS</text><text x="530" y="644.292" fill="#D9D3D0" font-family="Verdana" font-size="14" lengthAdjust="spacing" textLength="74">(:3000/ws)</text></g><g id="elem_AgentController"><polygon fill="#003153" points="565.5 694 575.5 684 722.5 684 722.5 720.297 712.5 730.297 565.5 730.297 565.5 694" style="stroke:#d9d3d0;stroke-width:1"/><line style="stroke:#d9d3d0;stroke-width:1" x1="712.5" x2="722.5" y1="694" y2="684"/><line style="stroke:#d9d3d0;stroke-width:1" x1="565.5" x2="712.5" y1="694" y2="694"/><line style="stroke:#d9d3d0;stroke-width:1" x1="712.5" x2="712.5" y1="694" y2="730.297"/><text x="580.5" y="716.995" fill="#D9D3D0" font-family="Verdana" font-size="14" lengthAdjust="spacing" textLength="117">AgentController</text></g><g id="link_App_Terminal"><path id="App-to-Terminal" fill="none" d="M139.058,156.063 C144.749,190.456 159.659,257.604 194,303 C205.888,318.715 217.9343,328.6872 233.9283,338.7132" style="stroke:#d9d3d0;stroke-width:1"/><polygon fill="#D9D3D0" points="239.012 341.9 233.511 333.731 234.776 339.244 229.262 340.509 239.012 341.9" style="stroke:#d9d3d0;stroke-width:1"/></g><g id="link_App_ChatInterface"><path id="App-to-ChatInterface" fill="none" d="M166.606,156.011 C191.441,173.872 221.4209,195.4328 246.3119,213.3338" style="stroke:#d9d3d0;stroke-width:1"/><polygon fill="#D9D3D0" points="251.183 216.837 246.212 208.335 247.124 213.918 241.541 214.83 251.183 216.837" style="stroke:#d9d3d0;stroke-width:1"/></g><g id="link_App_BannerSettings"><path id="App-to-BannerSettings" fill="none" d="M171.074,133 C182.629,133 188.184,133 199.739,133" style="stroke:#d9d3d0;stroke-width:1"/><polygon fill="#D9D3D0" points="205.739 133 196.739 129 200.739 133 196.739 137 205.739 133" style="stroke:#d9d3d0;stroke-width:1"/></g><g id="link_ChatInterface_chatService"><path id="ChatInterface-to-chatService" fill="none" d="M352.059,240 C378.118,240 398.178,240 424.237,240" style="stroke:#d9d3d0;stroke-width:1"/><polygon fill="#D9D3D0" points="430.237 240 421.237 236 425.237 240 421.237 244 430.237 240" style="stroke:#d9d3d0;stroke-width:1"/></g><g id="link_BannerSettings_settingsService"><path id="BannerSettings-to-settingsService" fill="none" d="M358.125,133 C382.001,133 399.876,133 423.752,133" style="stroke:#d9d3d0;stroke-width:1"/><polygon fill="#D9D3D0" points="429.752 133 420.752 129 424.752 133 420.752 137 429.752 133" style="stroke:#d9d3d0;stroke-width:1"/></g><g id="link_Terminal_socket"><path id="Terminal-to-socket" fill="none" d="M333.768,365 C395.416,365 451.065,365 512.714,365" style="stroke:#d9d3d0;stroke-width:1"/><polygon fill="#D9D3D0" points="518.714 365 509.714 361 513.714 365 509.714 369 518.714 365" style="stroke:#d9d3d0;stroke-width:1"/></g><g id="link_chatService_socket"><path id="chatService-to-socket" fill="none" d="M506.401,263.274 C520.479,286.674 539.2859,317.9347 552.5449,339.9737" style="stroke:#d9d3d0;stroke-width:1"/><polygon fill="#D9D3D0" points="555.638 345.115 554.426 335.341 553.06 340.831 547.571 339.465 555.638 345.115" style="stroke:#d9d3d0;stroke-width:1"/></g><g id="link_settingsService_socket"><path id="settingsService-to-socket" fill="none" d="M531.174,156.3 C546.496,171.635 564.673,193.427 573,217 C588.484,260.832 580.3113,310.8028 573.4883,339.4038" style="stroke:#d9d3d0;stroke-width:1"/><polygon fill="#D9D3D0" points="572.096 345.24 578.075 337.414 573.256 340.377 570.294 335.558 572.096 345.24" style="stroke:#d9d3d0;stroke-width:1"/></g><g id="link_HTTP_App"><path id="HTTP-App" fill="none" d="M66.2578,133 C77.7907,133 89.3236,133 100.8565,133" style="stroke:#d9d3d0;stroke-width:1"/></g><g id="link_client_socket_Server"><path id="client_socket-Server" fill="none" d="M576.281,598 C587.966,598 599.651,598 611.336,598" style="stroke:#d9d3d0;stroke-width:1"/></g><g id="link_Server_AgentController"><path id="Server-to-AgentController" fill="none" d="M652.721,621.17 C650.833,639.534 648.7766,659.5334 646.8896,677.8894" style="stroke:#d9d3d0;stroke-width:1"/><polygon fill="#D9D3D0" points="646.276 683.858 651.175 675.314 646.787 678.884 643.217 674.496 646.276 683.858" style="stroke:#d9d3d0;stroke-width:1"/></g><g id="link_socket_client_socket"><path id="socket-to-client_socket" fill="none" d="M567,384.513 C567,431.834 567,549.809 567,582.824" style="stroke:#d9d3d0;stroke-width:1"/><polygon fill="#D9D3D0" points="567 588.824 571 579.824 567 583.824 563 579.824 567 588.824" style="stroke:#d9d3d0;stroke-width:1"/><text x="609.5" y="457.067" fill="#D9D3D0" font-family="Verdana" font-size="13" lengthAdjust="spacing" textLength="75">connects to</text><text x="572" y="472.2" fill="#D9D3D0" font-family="Verdana" font-size="13" lengthAdjust="spacing" textLength="158">VITE_TERMINAL_WS_URL</text></g></g></svg>